<svg xmlns="http://www.w3.org/2000/svg" xmlns:xlink="http://www.w3.org/1999/xlink" width="336" height="609"
    viewBox="0 0 336 609" fill="none">
    <defs>
        <rect id="path_0" x="0" y="0" width="336" height="609" />
    </defs>
    <g opacity="1" transform="translate(0 0)  rotate(0 168 304.5)">
        <mask id="bg-mask" fill="white">
            <use xlink:href="#path_0"></use>
        </mask>
        <g mask="url(#bg-mask)">
            <g opacity="1" transform="translate(0 0)  rotate(0 168 304.5)">
                <g opacity="1" transform="translate(0 0)  rotate(0 168 304.5)">
                    <g opacity="1" transform="translate(0 0)  rotate(0 168 304.5)">
                        <path id="矩形" fill-rule="evenodd" style="fill:#FFFFFF"
                            transform="translate(0 0)  rotate(0 168 304.5)" opacity="1"
                            d="M0,40L0,569C0,591.09 17.91,609 40,609L296,609C318.09,609 336,591.09 336,569L336,40C336,17.91 318.09,0 296,0L40,0C17.91,0 0,17.91 0,40Z " />
                        <g opacity="1" transform="translate(8 32)  rotate(0 160 270.5)">
                            <path id="path-1-2" fill-rule="evenodd" style="fill:#D8D8D8"
                                transform="translate(0 0)  rotate(0 160 270.5)" opacity="1"
                                d="M1.2246467991473535e-15,521C0,526.3043297967909 2.1071368073083576,531.3914080547703 5.857864376269051,535.142135623731C9.608591945229746,538.8928631926916 14.69567020320912,541 20,541L300,541C311.04569499661585,541 320,532.0456949966159 320,521L320,20.000000000000004C320,14.695670203209115 317.89286319269166,9.608591945229735 314.14213562373095,5.857864376269042C310.39140805477024,2.1071368073083505 305.30432979679085,-3.552713678800501e-15 300,-3.552713678800501e-15L20.000000000000004,0C14.69567020320912,0 9.608591945229742,2.107136807308354 5.857864376269047,5.857864376269049C2.107136807308354,9.608591945229744 -3.552713678800501e-15,14.695670203209126 -3.552713678800501e-15,20.000000000000007Z " />
                        </g>
                        <g opacity="1" transform="translate(8 32)  rotate(0 160 27.5)">
                            <g opacity="1" transform="translate(0 0)  rotate(0 160 27.5)">
                                <path id="_" fill-rule="evenodd" style="fill:#000000"
                                    transform="translate(0 0)  rotate(0 160 27.5)" opacity="1"
                                    d="M0,55L320,55L320,0L0,0L0,55Z " />
                                <g opacity="1" transform="translate(18.9 31.95)  rotate(0 141.05 5.705)">
                                    <path id="形状结合" fill-rule="evenodd" style="fill:#FFFFFF"
                                        transform="translate(0 0)  rotate(0 5.680000000000005 5.705)" opacity="1"
                                        d="M10.66,11.41L11.36,10.71L6.41,5.71L11.36,0.71L10.66,0L5.66,5L0.71,0L0,0.71L4.95,5.71L0,10.71L0.71,11.41L5.66,6.41L10.66,11.41Z " />
                                    <g opacity="1" transform="translate(269.1 4.05)  rotate(0 6.5 1.5)">
                                        <path id="椭圆形" fill-rule="evenodd" style="fill:#FFFFFF"
                                            transform="translate(0 0)  rotate(0 1.5 1.5)" opacity="1"
                                            d="M1.5,0C0.67,0 0,0.67 0,1.5C0,2.33 0.67,3 1.5,3C2.33,3 3,2.33 3,1.5C3,0.67 2.33,0 1.5,0Z " />
                                        <path id="椭圆形备份-3" fill-rule="evenodd" style="fill:#FFFFFF"
                                            transform="translate(5 0)  rotate(0 1.5 1.5)" opacity="1"
                                            d="M1.5,0C0.67,0 0,0.67 0,1.5C0,2.33 0.67,3 1.5,3C2.33,3 3,2.33 3,1.5C3,0.67 2.33,0 1.5,0Z " />
                                        <path id="椭圆形备份-4" fill-rule="evenodd" style="fill:#FFFFFF"
                                            transform="translate(10 0)  rotate(0 1.5 1.5)" opacity="1"
                                            d="M1.5,0C0.67,0 0,0.67 0,1.5C0,2.33 0.67,3 1.5,3C2.33,3 3,2.33 3,1.5C3,0.67 2.33,0 1.5,0Z " />
                                    </g>
                                </g>
                                <g opacity="1" transform="translate(0 0)  rotate(0 160 9.5)">
                                    <path id="_2" fill-rule="evenodd" style="fill:#D8D8D8"
                                        transform="translate(0 0)  rotate(0 160 9.5)" opacity="0"
                                        d="M0,19L320,19L320,0L0,0L0,19Z " />
                                    <path id="_07:08" fill-rule="evenodd" style="fill:#FFFFFF"
                                        transform="translate(144.99385940956915 7.944226077106084)  rotate(0 14.5692223184776 4.352978768566743)"
                                        opacity="1"
                                        d="M5.29 7.09178C5.65 6.20178 5.83 5.23178 5.8 4.26178C5.84 3.29178 5.65 2.31178 5.24 1.42178C4.79 0.541782 3.87 0.00178225 2.88 0.0517823C1.7 0.0317823 0.66 0.821782 0.38 1.96178C0.11 2.76178 -0.01 3.59178 0.01 4.42178C-0.04 5.44178 0.17 6.45178 0.63 7.36178C1.05 8.21178 1.93 8.73178 2.88 8.69178C3.94 8.73178 4.91 8.09178 5.29 7.09178Z M2.87853 7.69266L2.86853 7.73266C3.40853 7.74266 3.91853 7.45266 4.18853 6.97266C4.57853 6.13266 4.74853 5.19266 4.66853 4.26266C4.69853 3.46266 4.57853 2.67266 4.31853 1.91266C4.12853 1.33266 3.56853 0.942657 2.95853 0.982657C2.35853 0.962657 1.81853 1.31266 1.58853 1.86266C1.25853 2.68266 1.10853 3.56266 1.15853 4.44266C1.12853 5.14266 1.22853 5.84266 1.43853 6.50266C1.57853 7.19266 2.17853 7.68266 2.87853 7.69266Z M6.75614 1.22577L11.3961 1.22577C10.7561 1.97577 10.1961 2.78577 9.70614 3.63577C8.84614 5.11577 8.24614 6.73577 7.94614 8.41577L9.11614 8.41577L9.11614 8.42577C9.29614 7.56577 9.44614 6.94577 9.55614 6.55577C9.75614 5.86577 10.0161 5.20577 10.3261 4.55577C10.6661 3.82577 11.0561 3.12577 11.5161 2.45577C11.8361 1.96577 12.1961 1.51577 12.5861 1.08577L12.5861 0.165774L6.75614 0.165774L6.75614 1.22577Z M15.5461 2.27577L14.3061 2.27577L14.3061 3.55577L15.5461 3.51577L15.5461 2.27577Z M15.5461 7.19577L14.3061 7.19577L14.3061 8.46577L15.5461 8.42577L15.5461 7.19577Z M19.56 0.0577722C18.38 0.0377722 17.34 0.827772 17.06 1.96777C16.79 2.75777 16.67 3.58777 16.69 4.42777C16.64 5.43777 16.85 6.45777 17.31 7.36777C17.73 8.21777 18.61 8.73777 19.56 8.69777L19.55 8.65777C20.63 8.71777 21.62 8.06777 22.01 7.05777C22.37 6.15777 22.55 5.19777 22.52 4.22777C22.56 3.24777 22.37 2.26777 21.96 1.38777C21.5 0.497772 20.55 -0.0222278 19.56 0.0577722Z M19.5485 7.73266C20.0985 7.72266 20.5985 7.42266 20.8585 6.93266C21.2485 6.09266 21.4185 5.15266 21.3385 4.22266C21.3685 3.42266 21.2485 2.63266 20.9885 1.87266C20.7985 1.29266 20.2385 0.902657 19.6285 0.942657C19.0285 0.932657 18.4885 1.27266 18.2585 1.82266C17.9285 2.64266 17.7785 3.52266 17.8285 4.40266C17.8085 5.10266 17.8985 5.80266 18.1085 6.46266C18.2485 7.15266 18.8485 7.64266 19.5485 7.65266L19.5485 7.73266Z M28.8519 2.13C28.8519 1.55 28.6019 1.01 28.1619 0.65C27.6419 0.2 26.9619 -0.03 26.2719 0.01C25.5719 -0.04 24.8719 0.2 24.3419 0.68C23.9019 1.1 23.6619 1.69 23.6619 2.3C23.6419 2.75 23.8119 3.18 24.1219 3.51C24.3219 3.7 24.5619 3.85 24.8119 3.95C24.3819 4.1 24.0019 4.39 23.7319 4.78C23.4919 5.16 23.3619 5.61 23.3719 6.07C23.3319 6.81 23.6419 7.52 24.2119 8C24.8119 8.46 25.5419 8.71 26.2919 8.71L26.2919 8.66C27.0719 8.71 27.8319 8.43 28.3919 7.89C28.8819 7.39 29.1519 6.71 29.1319 6.02C29.1619 5.45 28.9619 4.9 28.5819 4.49C28.3419 4.26 28.0719 4.07 27.7619 3.94C28.0319 3.8 28.2619 3.62 28.4519 3.4C28.7319 3.03 28.8719 2.58 28.8519 2.13Z M26.295 3.54902L26.245 3.59902C26.685 3.62902 27.115 3.46902 27.415 3.15902C27.675 2.91902 27.825 2.57902 27.815 2.22902C27.805 1.89902 27.675 1.58902 27.435 1.36902C27.125 1.07902 26.715 0.939019 26.295 0.979019C25.885 0.939019 25.485 1.07902 25.195 1.36902C24.975 1.61902 24.845 1.94902 24.855 2.28902C24.835 2.64902 25.005 2.99902 25.295 3.21902C25.585 3.42902 25.935 3.54902 26.295 3.54902Z M25.0541 4.89413C24.7241 5.20413 24.5541 5.63413 24.5741 6.08413C24.5741 6.50413 24.7241 6.91413 25.0141 7.22413C25.3841 7.56413 25.8741 7.73413 26.3641 7.69413L26.3141 7.74413C26.7741 7.76413 27.2241 7.60413 27.5741 7.30413C27.9141 7.01413 28.0941 6.57413 28.0641 6.12413C28.0941 5.65413 27.9141 5.20413 27.5641 4.88413C27.2041 4.59413 26.7541 4.44413 26.2841 4.46413C25.8341 4.44413 25.3941 4.60413 25.0541 4.89413Z " />
                                    <g opacity="1"
                                        transform="translate(281.42998986764877 7.849989867648733)  rotate(0 11.090017624897538 4.48006459154834)">
                                        <path id="Battery-Outline"
                                            style="stroke:#FFFFFF; stroke-width:0.85; stroke-opacity:1; stroke-dasharray:0 0"
                                            transform="translate(0 0)  rotate(0 9.810035149742372 4.480064591548341)"
                                            d="M19.12,8.47C19.44,8.15 19.62,7.71 19.62,7.26L19.62,1.71C19.62,1.26 19.44,0.82 19.12,0.5C18.8,0.18 18.37,0 17.92,0L1.7,0C1.25,0 0.82,0.18 0.5,0.5C0.18,0.82 0,1.26 0,1.71L0,7.26C0,7.71 0.18,8.14 0.5,8.46C0.82,8.78 1.26,8.96 1.71,8.96L17.91,8.96C18.36,8.97 18.8,8.79 19.12,8.47Z " />
                                        <path id="Battery-Connector" fill-rule="evenodd" style="fill:#FFFFFF"
                                            transform="translate(20.90001033235128 2.670010312351267)  rotate(0 0.6400124587219 1.8099999999999998)"
                                            opacity="0.58"
                                            d="M0,3.62C0.77,3.35 1.28,2.62 1.28,1.81C1.28,1 0.77,0.27 0,0L0,3.62Z " />
                                        <path id="Battery-Fill" fill-rule="evenodd" style="fill:#FFFFFF"
                                            transform="translate(1.2798874683254482 1.2800103123512665)  rotate(0 8.530179904114886 3.2)"
                                            opacity="1"
                                            d="M17.06,0.87C17.07,0.64 16.98,0.42 16.82,0.26C16.66,0.1 16.45,0 16.22,0L0.84,0C0.37,0.01 -0.01,0.4 0,0.87L0,5.54C0,5.77 0.08,5.98 0.24,6.14C0.4,6.31 0.61,6.4 0.84,6.4L16.22,6.4C16.69,6.39 17.06,6.01 17.06,5.54L17.06,0.87Z " />
                                    </g>
                                </g>
                            </g>
                            <g opacity="1" transform="translate(0 19)  rotate(0 160 18)">
                                <path id="bg" fill-rule="evenodd" style="fill:#D8D8D8"
                                    transform="translate(0 0)  rotate(0 160 18)" opacity="0"
                                    d="M0,36L320,36L320,0L0,0L0,36Z " />
                            </g>
                        </g>
                        <g opacity="1" transform="translate(142 14)  rotate(0 26 2)">
                            <path id="矩形-4" fill-rule="evenodd" style="fill:#CCD5DB"
                                transform="translate(0 0)  rotate(0 22 2)" opacity="1"
                                d="M0,2C0,3.1 0.9,4 2,4L42,4C43.1,4 44,3.1 44,2C44,0.9 43.1,0 42,0L2,0C0.9,0 0,0.9 0,2Z " />
                            <path id="椭圆形-2" fill-rule="evenodd" style="fill:#CCD5DB"
                                transform="translate(48 0)  rotate(0 2 2)" opacity="1"
                                d="M2,0C0.9,0 0,0.9 0,2C0,3.1 0.9,4 2,4C3.1,4 4,3.1 4,2C4,0.9 3.1,0 2,0Z " />
                        </g>
                    </g>
                </g>
            </g>
        </g>
    </g>
</svg>