<?xml version="1.0" encoding="UTF-8"?>
<svg width="16px" height="16px" viewBox="0 0 16 16" version="1.1" xmlns="http://www.w3.org/2000/svg" xmlns:xlink="http://www.w3.org/1999/xlink">
    <title>多选图标</title>
    <g id="多选图标" stroke="none" stroke-width="1" fill="none" fill-rule="evenodd">
        <path d="M6,8.66666667 C6.73637967,8.66666667 7.33333333,9.26362033 7.33333333,10 L7.33333333,14 C7.33333333,14.7363797 6.73637967,15.3333333 6,15.3333333 L2,15.3333333 C1.26362033,15.3333333 0.666666667,14.7363797 0.666666667,14 L0.666666667,10 C0.666666667,9.26362033 1.26362033,8.66666667 2,8.66666667 L6,8.66666667 Z M14,8.66666667 C14.6930632,8.66666667 15.262621,9.19545607 15.3272297,9.8715911 L15.3333333,10 L15.3333333,14 C15.3333333,14.6930632 14.8045439,15.262621 14.1284089,15.3272297 L14,15.3333333 L10,15.3333333 C9.30693678,15.3333333 8.73737895,14.8045439 8.67277029,14.1284089 L8.66666667,14 L8.66666667,10 C8.66666667,9.30693678 9.19545607,8.73737895 9.8715911,8.67277029 L10,8.66666667 L14,8.66666667 Z M14,9.66666667 L10,9.66666667 C9.83891695,9.66666667 9.7045209,9.78092733 9.67343882,9.93282171 L9.66666667,10 L9.66666667,14 C9.66666667,14.1610831 9.78092733,14.2954791 9.93282171,14.3265612 L10,14.3333333 L14,14.3333333 C14.1610831,14.3333333 14.2954791,14.2190727 14.3265612,14.0671783 L14.3333333,14 L14.3333333,10 C14.3333333,9.83891695 14.2190727,9.7045209 14.0671783,9.67343882 L14,9.66666667 Z M5.41666039,10.5042083 L5.34279598,10.5659208 L3.59859925,12.3101175 L2.82078148,11.5322997 C2.72693195,11.43845 2.59961878,11.3857648 2.46689497,11.3858532 C2.33417117,11.3859416 2.20692831,11.4387965 2.11320329,11.5327711 C1.93963694,11.7063375 1.92035204,11.9757621 2.05534792,12.1706301 L2.11320329,12.2398779 L3.29171491,13.4183895 C3.46528126,13.5919559 3.73470566,13.611241 3.9295738,13.476245 L3.99882169,13.4183895 L6.09704321,11.320168 C6.30532283,11.1118884 6.30532283,10.7742004 6.09704321,10.5659208 C5.91190577,10.3807833 5.62451974,10.3602125 5.41666039,10.5042083 Z M6,0.666666667 C6.73637967,0.666666667 7.33333333,1.26362033 7.33333333,2 L7.33333333,6 C7.33333333,6.73637967 6.73637967,7.33333333 6,7.33333333 L2,7.33333333 C1.26362033,7.33333333 0.666666667,6.73637967 0.666666667,6 L0.666666667,2 C0.666666667,1.26362033 1.26362033,0.666666667 2,0.666666667 L6,0.666666667 Z M14,0.666666667 C14.7363797,0.666666667 15.3333333,1.26362033 15.3333333,2 L15.3333333,6 C15.3333333,6.73637967 14.7363797,7.33333333 14,7.33333333 L10,7.33333333 C9.26362033,7.33333333 8.66666667,6.73637967 8.66666667,6 L8.66666667,2 C8.66666667,1.26362033 9.26362033,0.666666667 10,0.666666667 L14,0.666666667 Z M5.41666039,2.50420829 L5.34279598,2.56592077 L3.59859925,4.3101175 L2.82078148,3.53229972 C2.72693195,3.43845003 2.59961878,3.3857648 2.46689497,3.38585322 C2.33417117,3.38594165 2.20692831,3.43879647 2.11320329,3.53277113 C1.93963694,3.70633748 1.92035204,3.97576213 2.05534792,4.1706301 L2.11320329,4.23987791 L3.29171491,5.41838952 C3.46528126,5.59195588 3.73470566,5.61124103 3.9295738,5.47624497 L3.99882169,5.41838952 L6.09704321,3.320168 C6.30532283,3.11188838 6.30532283,2.77420039 6.09704321,2.56592077 C5.91190577,2.38078333 5.62451974,2.3602125 5.41666039,2.50420829 Z M13.4166604,2.50420829 L13.342796,2.56592077 L11.5985992,4.3101175 L10.8207815,3.53229972 C10.726932,3.43845003 10.5996188,3.3857648 10.466895,3.38585322 C10.3341712,3.38594165 10.2069283,3.43879647 10.1132033,3.53277113 C9.93963694,3.70633748 9.92035204,3.97576213 10.0553479,4.1706301 L10.1132033,4.23987791 L11.2917149,5.41838952 C11.4652813,5.59195588 11.7347057,5.61124103 11.9295738,5.47624497 L11.9988217,5.41838952 L14.0970432,3.320168 C14.3053228,3.11188838 14.3053228,2.77420039 14.0970432,2.56592077 C13.9119058,2.38078333 13.6245197,2.3602125 13.4166604,2.50420829 Z" id="形状结合" fill="#333333" fill-rule="nonzero"></path>
    </g>
</svg>