<?xml version="1.0" encoding="UTF-8"?>
<svg width="328px" height="600px" viewBox="0 0 328 600" version="1.1" xmlns="http://www.w3.org/2000/svg" xmlns:xlink="http://www.w3.org/1999/xlink">
    <title>phone</title>
    <g id="页面-1" stroke="none" stroke-width="1" fill="none" fill-rule="evenodd">
        <g id="phone" fill-rule="nonzero">
            <path d="M28,0 L300,0 C315.5,0 328,12.5 328,28 L328,572 C328,587.5 315.5,600 300,600 L28,600 C12.5,600 0,587.5 0,572 L0,28 C0,12.5 12.5,0 28,0 Z" id="Rectangle_12225" fill="#F6F9FA"></path>
            <path d="M183,17 C183,15.3 184.3,14 186,14 C187.7,14 189,15.3 189,17 C189,18.7 187.7,20 186,20 C184.3,20 183,18.7 183,17 Z M142,20 C140.3,20 139,18.7 139,17 C139,15.3 140.3,14 142,14 L172,14 C173.7,14 175,15.3 175,17 C175,18.7 173.7,20 172,20 L142,20 Z" id="Union_209" fill="#CCD5DB"></path>
            <path d="M12,31 L316,31 C320.4,31 324,34.6 324,39 L324,83 L4,83 L4,39 C4,34.6 7.6,31 12,31 Z" id="Rectangle_12791" fill="#222528"></path>
            <path d="M315.5,35.9 L315.5,47.2 L307.4,47.2 L307.4,35.9 L309.8,35.9 L309.8,35.5 L313,35.5 L313,35.9 L315.5,35.9 L315.5,35.9 Z M289,47 L300.3,47 L300.3,35.7 L289,47 Z M287,38.5 C282.4,34.2 275.2,34.5 271,39.1 L279.3,46.8 C279.3,46.8 285.3,40.5 287,38.5 Z" id="Path_3109" fill="#FFFFFF" opacity="0.6"></path>
            <path d="M283.6,42.3 C281.1,40 277.1,40.1 274.8,42.6 L279.4,46.8 C279.4,46.8 282.6,43.3 283.6,42.3 Z M288.9,47 L294.9,47 L294.9,41 L288.9,47 Z M315.5,47.2 L307.4,47.2 L307.4,41.5 L315.5,41.5 L315.5,47.2 Z" id="Path_3111" fill="#FFFFFF"></path>
            <path d="M155.1,42.8 C155.2,43.8 154.9,44.7 154.3,45.5 C153.8,46.2 152.9,46.5 152.1,46.5 C151.2,46.5 150.4,46.2 149.9,45.5 C149.3,44.7 149,43.8 149.1,42.8 L149.1,39.9 C149,38.9 149.3,38 149.9,37.2 C151,36 153,35.9 154.2,37 L154.4,37.2 C155,38 155.3,38.9 155.2,39.9 L155.2,42.8 L155.1,42.8 Z M154.7,39.8 C154.7,38.9 154.5,38.1 154,37.4 C153,36.3 151.4,36.2 150.3,37.2 L150.1,37.4 C149.6,38.1 149.4,38.9 149.4,39.8 L149.4,42.7 C149.4,43.6 149.6,44.4 150.1,45.1 C151,46.2 152.7,46.3 153.8,45.4 L154.1,45.1 C154.6,44.4 154.8,43.6 154.8,42.7 L154.7,39.8 L154.7,39.8 Z M162.8,36.7 C161.8,37.8 160.9,39.1 160.3,40.5 C159.6,42 159.3,43.7 159.3,45.4 L159.3,46.3 L159,46.3 L159,45.4 C159,43.8 159.3,42.2 159.9,40.7 C160.5,39.2 161.4,37.9 162.4,36.7 L156.5,36.7 L156.5,36.3 L162.9,36.3 L162.8,36.7 L162.8,36.7 Z M165.1,39.8 L164.5,39.8 L164.5,38.9 L165.1,38.9 L165.1,39.8 Z M165.1,46.3 L164.5,46.3 L164.5,45.4 L165.1,45.4 L165.1,46.3 Z M172.9,42.8 C173,43.8 172.7,44.7 172.1,45.5 C171.6,46.2 170.7,46.5 169.9,46.5 C169,46.5 168.2,46.2 167.7,45.5 C167.1,44.7 166.8,43.8 166.9,42.8 L166.9,39.9 C166.8,38.9 167.1,38 167.7,37.2 C168.8,36 170.8,35.9 172,37 L172.2,37.2 C172.8,38 173.1,38.9 173,39.9 L173,42.8 L172.9,42.8 L172.9,42.8 Z M172.5,39.8 C172.5,38.9 172.3,38.1 171.8,37.4 C170.8,36.3 169.2,36.2 168.1,37.2 L167.9,37.4 C167.4,38.1 167.2,38.9 167.2,39.8 L167.2,42.7 C167.2,43.6 167.4,44.4 167.9,45.1 C168.8,46.2 170.5,46.3 171.6,45.4 L171.9,45.1 C172.4,44.4 172.6,43.6 172.6,42.7 L172.6,39.8 L172.5,39.8 Z M180.4,38.8 C180.4,39.3 180.2,39.8 179.9,40.3 C179.6,40.7 179.1,41 178.6,41.2 C179.2,41.4 179.7,41.7 180.1,42.1 C180.5,42.5 180.7,43.1 180.7,43.7 C180.7,44.5 180.4,45.2 179.8,45.8 C179.2,46.3 178.4,46.6 177.6,46.5 C176.8,46.5 175.9,46.3 175.3,45.8 C174.7,45.3 174.3,44.5 174.4,43.7 C174.4,43.1 174.6,42.6 175,42.1 C175.4,41.6 176,41.3 176.6,41.2 C176.1,41.1 175.6,40.7 175.2,40.3 C174.9,39.9 174.7,39.4 174.7,38.8 C174.7,38.1 175,37.3 175.5,36.9 C176.1,36.4 176.9,36.2 177.6,36.2 C178.3,36.2 179.1,36.4 179.6,36.9 C180.2,37.3 180.5,38.1 180.4,38.8 L180.4,38.8 Z M180.3,43.7 C180.3,43 180,42.4 179.5,42 C179,41.6 178.3,41.3 177.6,41.3 C176.9,41.3 176.1,41.5 175.6,42 C175.1,42.4 174.8,43 174.8,43.7 C174.8,44.4 175.1,45 175.6,45.5 C176.2,45.9 176.9,46.2 177.7,46.1 C178.4,46.1 179.1,45.9 179.6,45.4 C180.1,45 180.4,44.3 180.3,43.7 L180.3,43.7 Z M180.1,38.8 C180.1,38.2 179.9,37.6 179.4,37.2 C178.9,36.8 178.3,36.6 177.7,36.6 C177,36.6 176.4,36.8 175.8,37.2 C175.3,37.6 175,38.2 175.1,38.8 C175.1,39.4 175.4,40 175.8,40.4 C176.3,40.8 177,41 177.7,41 C178.3,41 178.9,40.8 179.4,40.4 C179.8,39.9 180.1,39.4 180.1,38.8 Z" id="Path_3112" fill="#FFFFFF"></path>
        </g>
    </g>
</svg>