<?xml version="1.0" encoding="UTF-8"?>
<svg width="16px" height="16px" viewBox="0 0 16 16" version="1.1" xmlns="http://www.w3.org/2000/svg" xmlns:xlink="http://www.w3.org/1999/xlink">
    <title>单选图标</title>
    <g id="单选图标" stroke="none" stroke-width="1" fill="none" fill-rule="evenodd">
        <path d="M4,8.83333333 C5.74890171,8.83333333 7.16666667,10.2510983 7.16666667,12 C7.16666667,13.7489017 5.74890171,15.1666667 4,15.1666667 C2.25109829,15.1666667 0.833333333,13.7489017 0.833333333,12 C0.833333333,10.2510983 2.25109829,8.83333333 4,8.83333333 Z M12,8.83333333 C13.7489017,8.83333333 15.1666667,10.2510983 15.1666667,12 C15.1666667,13.7489017 13.7489017,15.1666667 12,15.1666667 C10.2510983,15.1666667 8.83333333,13.7489017 8.83333333,12 C8.83333333,10.2510983 10.2510983,8.83333333 12,8.83333333 Z M4,9.83333333 C2.80338304,9.83333333 1.83333333,10.803383 1.83333333,12 C1.83333333,13.196617 2.80338304,14.1666667 4,14.1666667 C5.19661696,14.1666667 6.16666667,13.196617 6.16666667,12 C6.16666667,10.803383 5.19661696,9.83333333 4,9.83333333 Z M12,9.83333333 C10.803383,9.83333333 9.83333333,10.803383 9.83333333,12 C9.83333333,13.196617 10.803383,14.1666667 12,14.1666667 C13.196617,14.1666667 14.1666667,13.196617 14.1666667,12 C14.1666667,10.803383 13.196617,9.83333333 12,9.83333333 Z M4,0.666666667 C5.84094917,0.666666667 7.33333333,2.15905083 7.33333333,4 C7.33333333,5.84094917 5.84094917,7.33333333 4,7.33333333 C2.15905083,7.33333333 0.666666667,5.84094917 0.666666667,4 C0.666666667,2.15905083 2.15905083,0.666666667 4,0.666666667 Z M12,0.833333333 C13.7489017,0.833333333 15.1666667,2.25109829 15.1666667,4 C15.1666667,5.74890171 13.7489017,7.16666667 12,7.16666667 C10.2510983,7.16666667 8.83333333,5.74890171 8.83333333,4 C8.83333333,2.25109829 10.2510983,0.833333333 12,0.833333333 Z M12,1.83333333 C10.803383,1.83333333 9.83333333,2.80338304 9.83333333,4 C9.83333333,5.19661696 10.803383,6.16666667 12,6.16666667 C13.196617,6.16666667 14.1666667,5.19661696 14.1666667,4 C14.1666667,2.80338304 13.196617,1.83333333 12,1.83333333 Z M4,2.66666667 C3.26362033,2.66666667 2.66666667,3.26362033 2.66666667,4 C2.66666667,4.73637967 3.26362033,5.33333333 4,5.33333333 C4.73637967,5.33333333 5.33333333,4.73637967 5.33333333,4 C5.33333333,3.26362033 4.73637967,2.66666667 4,2.66666667 Z" id="形状结合" fill="#000000" fill-rule="nonzero"></path>
    </g>
</svg>